<svg xmlns="http://www.w3.org/2000/svg" width="88.344" height="88.572" viewBox="0 0 88.344 88.572">
  <g id="Privacy" transform="translate(0 0)">
    <path id="Path_4117" data-name="Path 4117" d="M112.734-380.376h-1.179q-6.664,0-13.328,0c-2.837,0-4.378,1.168-5.156,3.883q-.558,1.947-1.12,3.892c-.4,1.4-.709,1.634-2.21,1.634q-11.674,0-23.347,0a5.118,5.118,0,0,0-3.652,1.255,4.958,4.958,0,0,0-1.522,3.917c.013,3.845,0,7.69,0,11.534v1.2a28.806,28.806,0,0,1-3.338-.028,2.6,2.6,0,0,1-2.037-2.427c-.028-.313-.012-.63-.012-.945q0-26.661,0-53.323c0-3.642,2.031-5.686,5.651-5.686h45.654c3.488,0,5.589,2.088,5.591,5.577q.009,14.276,0,28.552Zm-42.166-32.1a11.24,11.24,0,0,0-11.205,11.242,11.319,11.319,0,0,0,11.3,11.281A11.385,11.385,0,0,0,81.9-401.234,11.292,11.292,0,0,0,70.569-412.475Zm13.742,26.869H62.094c-.315,0-.631-.005-.945.014a1.288,1.288,0,0,0-1.286,1.267,1.268,1.268,0,0,0,1,1.411,3.914,3.914,0,0,0,1.024.112q22.406.008,44.812,0a3.987,3.987,0,0,0,1.025-.108,1.265,1.265,0,0,0,1.016-1.4,1.286,1.286,0,0,0-1.271-1.28c-.314-.024-.63-.016-.945-.016ZM72.344-375.558q5.428,0,10.856,0c1.163,0,1.747-.456,1.756-1.357s-.594-1.445-1.707-1.446q-10.855-.011-21.711,0a1.506,1.506,0,0,0-1.7,1.4c-.018.859.649,1.4,1.743,1.4Q66.963-375.554,72.344-375.558Zm24.7-25.952h-.851c-3.12,0-6.239-.009-9.359.008-.987.006-1.581.549-1.593,1.365a1.483,1.483,0,0,0,1.552,1.447c.219.017.441.007.661.007q9.547,0,19.1-.006a4.134,4.134,0,0,0,1.3-.151,1.263,1.263,0,0,0,.654-1.985,2.358,2.358,0,0,0-1.536-.656C103.66-401.538,100.351-401.51,97.042-401.51Zm-.058,7.962c-3.372,0-6.743.006-10.114-.005a1.416,1.416,0,0,0-1.519.867c-.4,1.02.315,1.936,1.594,1.939q10.067.023,20.134,0a1.487,1.487,0,0,0,1.683-1.413c.009-.855-.649-1.385-1.758-1.387Q101.994-393.555,96.984-393.548Zm.04-15.9c-3.4,0-6.806-.01-10.209.006a1.4,1.4,0,0,0-1.576,1.38,1.479,1.479,0,0,0,1.476,1.426,6.267,6.267,0,0,0,.661.013q9.642,0,19.284-.005a3.875,3.875,0,0,0,1.116-.131,1.266,1.266,0,0,0,.964-1.436,1.284,1.284,0,0,0-1.225-1.225c-.313-.031-.629-.029-.944-.029Q101.8-409.455,97.024-409.451Z" transform="translate(-43.805 418.311)" fill="#fdf5e6"/>
    <rect id="Rectangle_2065" data-name="Rectangle 2065" width="6.991" height="62.049" rx="3.496" transform="translate(62.202 2.682)" fill="#ffe5bc"/>
    <path id="Path_4116" data-name="Path 4116" d="M17.406-408.663c0-2.188-.024-4.262.007-6.334a35.249,35.249,0,0,1,.224-5.553,7.61,7.61,0,0,1,7.482-6.143q23.492-.035,46.985,0a7.84,7.84,0,0,1,7.869,7.968c.026,5.579.007,11.158.007,16.737v1.086c.579.029,1.076.044,1.571.081a4.994,4.994,0,0,1,4.7,4.791c.063,1.194.03,2.395.034,3.592,0,1.164,0,2.328,0,3.662.609,0,1.16-.006,1.711,0,1.291.017,2.589-.036,3.871.079a5.077,5.077,0,0,1,4.591,4.523,10.519,10.519,0,0,1,.083,1.225q.007,16.973,0,33.947c-.008,4.541-1.966,7.963-6.136,9.886a9.686,9.686,0,0,1-3.905.889q-29.921.088-59.841.049c-2.553,0-5.111-.114-7.656.024a10.61,10.61,0,0,1-10.8-10.816c.066-9.9.017-19.794.017-29.691q0-12.1,0-24.207a5.667,5.667,0,0,1,1.384-4.093,5.387,5.387,0,0,1,4.151-1.7C14.922-408.664,16.086-408.663,17.406-408.663Zm59.732,19.884v-.966q0-14.276,0-28.552c0-3.489-2.1-5.577-5.591-5.577H25.891c-3.62,0-5.651,2.044-5.651,5.686q0,26.662,0,53.323c0,.315-.016.632.012.945a2.6,2.6,0,0,0,2.037,2.427,28.813,28.813,0,0,0,3.338.028v-1.2c0-3.845.009-7.69,0-11.534a4.958,4.958,0,0,1,1.522-3.917,5.118,5.118,0,0,1,3.652-1.255q11.673.007,23.347,0c1.5,0,1.807-.233,2.21-1.634q.559-1.946,1.12-3.892c.778-2.715,2.32-3.881,5.156-3.883q6.664-.005,13.328,0ZM17.406-405.76c-1.181,0-2.247,0-3.312,0-2.292,0-2.972.685-2.972,2.991q0,15.788,0,31.575c0,7.626.032,15.252,0,22.877-.018,4.053,4.054,7.9,8.432,6.947,3.741-.81,5.945-3.109,6.046-6.957.085-3.212.023-6.428.021-9.642a3.147,3.147,0,0,0-.1-.51c-.7,0-1.354-.015-2.009,0a5.831,5.831,0,0,1-6.15-6.117c.1-13.3.042-26.6.042-39.894Zm58.106,43.755-.149-.011c0-1.7.024-3.4-.008-5.1a1.5,1.5,0,0,0-1.7-1.68c-.252,0-.5.011-.755-.008a17.447,17.447,0,0,1-6.8-2.355c-2.685-1.414-1.888-1.475-4.652,0-2.446,1.3-4.946,2.471-7.84,2.388-.926-.027-1.421.624-1.424,1.637-.009,3.023-.019,6.047.011,9.071a10.968,10.968,0,0,0,2.13,6.43c2.27,3.146,5.493,4.91,9.071,6.116a1.732,1.732,0,0,0,1.172-.113,47.956,47.956,0,0,0,4.784-2.414,11.428,11.428,0,0,0,5.623-7.486A54.018,54.018,0,0,0,75.512-362.005Zm7.912-26.83c0-2.131-.085-4.211.024-6.281.111-2.114-1.262-3.258-3.468-2.76v9.041Z" transform="translate(-8.209 426.713)" fill="#004d3d"/>
    <path id="Path_4118" data-name="Path 4118" d="M26.018-343.746v1.274c0,13.3.056,26.6-.042,39.894a5.831,5.831,0,0,0,6.15,6.117c.656-.017,1.312,0,2.009,0a3.147,3.147,0,0,1,.1.51c0,3.214.063,6.43-.021,9.642-.1,3.848-2.305,6.147-6.046,6.957-4.379.948-8.451-2.894-8.432-6.947.035-7.625,0-15.251,0-22.877q0-15.787,0-31.575c0-2.306.68-2.988,2.972-2.991C23.771-343.747,24.837-343.746,26.018-343.746Z" transform="translate(-16.821 364.699)" fill="#347769"/>
    <path id="Path_4119" data-name="Path 4119" d="M205.632-200.791a54.022,54.022,0,0,1-.541,6.469,11.428,11.428,0,0,1-5.623,7.486,47.963,47.963,0,0,1-4.784,2.414,1.732,1.732,0,0,1-1.172.113c-3.578-1.206-6.8-2.971-9.071-6.116a10.968,10.968,0,0,1-2.13-6.43c-.03-3.023-.02-6.047-.011-9.071,0-1.013.5-1.663,1.424-1.637,2.893.083,5.393-1.086,7.84-2.388,2.764-1.471,1.967-1.41,4.652,0a17.449,17.449,0,0,0,6.8,2.355c.251.019.5,0,.755.008a1.5,1.5,0,0,1,1.7,1.68c.032,1.7.008,3.4.008,5.1ZM193.8-192.014h1.793c.063,0,.126,0,.189,0,.918-.053,1.182-.38,1.023-1.262-.111-.617-.169-1.249-.34-1.849a2.225,2.225,0,0,1,.457-2.223,3.591,3.591,0,0,0-.41-4.8,3.717,3.717,0,0,0-4.829-.344c-1.525,1.148-2.155,3.272-1.016,4.749.993,1.287.71,2.444.46,3.735-.054.277-.071.561-.132.836-.192.857.239,1.157,1.013,1.161C192.6-192.014,193.2-192.016,193.8-192.014Z" transform="translate(-138.329 265.499)" fill="#f8d697"/>
    <path id="Path_4120" data-name="Path 4120" d="M295.851-303.827h-3.444v-9.041c2.206-.5,3.578.647,3.468,2.76C295.767-308.038,295.851-305.958,295.851-303.827Z" transform="translate(-220.636 341.705)" fill="#347769"/>
    <path id="Path_4121" data-name="Path 4121" d="M81.022-403.6a11.291,11.291,0,0,1,11.327,11.241A11.385,11.385,0,0,1,81.118-381.08a11.319,11.319,0,0,1-11.3-11.281A11.24,11.24,0,0,1,81.022-403.6ZM79.9-392.156c-1.153.457-2.112.842-3.075,1.218-.613.24-.845.664-.544,1.261a.9.9,0,0,0,1.427.351,9.485,9.485,0,0,0,.9-.682c.525-.407,1.049-.816,1.725-1.343-.17,1.222-.312,2.215-.446,3.208a.912.912,0,0,0,.906,1.165c.619.051,1.009-.512.908-1.243-.137-.992-.289-1.981-.461-3.154.884.691,1.611,1.334,2.418,1.856a1.987,1.987,0,0,0,1.279.23.934.934,0,0,0,.424-.806,1.991,1.991,0,0,0-.866-.949c-.836-.413-1.734-.7-2.8-1.117,1.084-.433,1.96-.767,2.821-1.136.278-.119.692-.3.733-.506a1.453,1.453,0,0,0-.191-1.162A1.2,1.2,0,0,0,83.92-395c-.9.579-1.71,1.286-2.673,2.036.15-1.065.333-1.931.372-2.8a2.85,2.85,0,0,0-.355-1.414,1.032,1.032,0,0,0-.908-.026,4.779,4.779,0,0,0-.433,1.421c-.036.17.071.366.1.553.1.688.184,1.377.3,2.277-.929-.736-1.637-1.358-2.411-1.882a1.673,1.673,0,0,0-1.175-.285,1.017,1.017,0,0,0-.536.855,1.864,1.864,0,0,0,.872.944C77.929-392.893,78.844-392.582,79.9-392.156Z" transform="translate(-54.259 409.439)" fill="#49b48f"/>
    <path id="Path_4122" data-name="Path 4122" d="M96.222-297.207h22.217c.315,0,.631-.008.945.016a1.286,1.286,0,0,1,1.271,1.28,1.265,1.265,0,0,1-1.016,1.4,3.988,3.988,0,0,1-1.025.108q-22.406.008-44.812,0a3.913,3.913,0,0,1-1.024-.112,1.268,1.268,0,0,1-1-1.411,1.288,1.288,0,0,1,1.286-1.267c.314-.019.63-.014.945-.014Z" transform="translate(-55.716 329.913)" fill="#004d3d"/>
    <path id="Path_4123" data-name="Path 4123" d="M84.207-265.731q-5.381,0-10.761,0c-1.094,0-1.761-.546-1.743-1.4a1.506,1.506,0,0,1,1.7-1.4q10.855-.013,21.711,0c1.113,0,1.717.538,1.707,1.446s-.593,1.356-1.756,1.357Q89.635-265.729,84.207-265.731Z" transform="translate(-55.668 308.485)" fill="#004d3d"/>
    <path id="Path_4124" data-name="Path 4124" d="M184.085-360.2c3.309,0,6.618-.028,9.925.03a2.358,2.358,0,0,1,1.536.656,1.263,1.263,0,0,1-.654,1.985,4.134,4.134,0,0,1-1.3.151q-9.548.013-19.1.006c-.22,0-.442.01-.661-.007a1.483,1.483,0,0,1-1.552-1.447c.012-.815.605-1.359,1.593-1.365,3.119-.017,6.239-.008,9.359-.008Z" transform="translate(-130.848 377.005)" fill="#004d3d"/>
    <path id="Path_4125" data-name="Path 4125" d="M184.021-328.672q5.01,0,10.02,0c1.109,0,1.767.532,1.758,1.387a1.487,1.487,0,0,1-1.683,1.413q-10.067.019-20.134,0c-1.279,0-2-.918-1.594-1.939a1.416,1.416,0,0,1,1.519-.867C177.277-328.666,180.649-328.672,184.021-328.672Z" transform="translate(-130.841 353.435)" fill="#004d3d"/>
    <path id="Path_4126" data-name="Path 4126" d="M184.066-391.639q4.774,0,9.547,0c.315,0,.631,0,.944.029a1.284,1.284,0,0,1,1.225,1.225,1.266,1.266,0,0,1-.964,1.436,3.876,3.876,0,0,1-1.116.131q-9.642.011-19.284.005a6.275,6.275,0,0,1-.661-.013,1.479,1.479,0,0,1-1.476-1.426,1.4,1.4,0,0,1,1.576-1.38C177.26-391.647,180.663-391.638,184.066-391.639Z" transform="translate(-130.846 400.498)" fill="#004d3d"/>
    <path id="Path_4127" data-name="Path 4127" d="M216.841-168.923c-.6,0-1.195,0-1.792,0-.775,0-1.205-.3-1.013-1.161.062-.275.079-.559.132-.836.25-1.29.532-2.448-.46-3.735-1.14-1.477-.51-3.6,1.016-4.749a3.717,3.717,0,0,1,4.829.344,3.591,3.591,0,0,1,.41,4.8,2.225,2.225,0,0,0-.457,2.223c.171.6.229,1.232.34,1.849.159.883-.1,1.209-1.023,1.262-.063,0-.126,0-.189,0Z" transform="translate(-161.374 242.407)" fill="#fdf5e6"/>
    <ellipse id="Ellipse_495" data-name="Ellipse 495" cx="6.555" cy="5.681" rx="6.555" ry="5.681" transform="translate(20.253 11.421)" fill="#49b48f"/>
    <path id="Path_4128" data-name="Path 4128" d="M-722.082-384.013c1.7.191,2.257.609,2.231,1.632-.025.982-.561,1.362-2.164,1.534-.292,1.742-.69,2.254-1.708,2.2-.967-.052-1.362-.633-1.443-1.99a12.3,12.3,0,0,1-1.924-.9c-.232-.157-.306-.68-.3-1.032.024-.929.569-1.267,2.145-1.437.292-1.745.685-2.252,1.7-2.2C-722.568-386.152-722.168-385.566-722.082-384.013Z" transform="translate(750.358 399.501)" fill="#e9551a"/>
  </g>
</svg>
