<svg xmlns="http://www.w3.org/2000/svg" width="24" height="24" viewBox="0 0 24 24">
  <g id="attach" transform="translate(-300 -1329)">
    <rect id="Rectangle_1103" data-name="Rectangle 1103" width="24" height="24" transform="translate(300 1329)" fill="none"/>
    <rect id="Rectangle_1104" data-name="Rectangle 1104" width="18" height="18" transform="translate(303 1332)" fill="none"/>
    <path id="paperclip" d="M4.908,15.7A4.913,4.913,0,0,1,0,10.8V3.926a.654.654,0,0,1,1.309,0V10.8a3.6,3.6,0,1,0,7.2,0V3.6a2.29,2.29,0,0,0-4.58,0v6.544a.982.982,0,0,0,1.963,0V3.926a.654.654,0,0,1,1.309,0v6.216a2.29,2.29,0,0,1-4.581,0V3.6a3.6,3.6,0,0,1,7.2,0v7.2A4.913,4.913,0,0,1,4.908,15.7Zm0,0" transform="translate(307 1333)" fill="#1e4c3e"/>
  </g>
</svg>
