<svg id="Group_4275" data-name="Group 4275" xmlns="http://www.w3.org/2000/svg" width="22.002" height="22.022" viewBox="0 0 22.002 22.022">
  <path id="Path_4269" data-name="Path 4269" d="M1539.829,341.48h-19.866a.4.4,0,0,0-.074-.038,1.275,1.275,0,0,1-.985-1.3q-.006-5.428,0-10.857a1.3,1.3,0,0,1,.39-.969,1.4,1.4,0,0,1,1.041-.374q9.565,0,19.13,0a2.4,2.4,0,0,1,.3.018,1.279,1.279,0,0,1,1.1,1.007c.012.055.029.109.044.164v11.139a4,4,0,0,1-.143.462A1.381,1.381,0,0,1,1539.829,341.48Zm-16.574-6.96c.394,0,.788,0,1.182,0a1.044,1.044,0,0,0,1.092-1.036c.024-.651.025-1.3,0-1.955a1.035,1.035,0,0,0-1.08-1.024q-1.182-.011-2.364,0a1.059,1.059,0,0,0-1.087,1.109q-.005.9,0,1.805a1.066,1.066,0,0,0,1.1,1.1C1522.482,334.525,1522.869,334.521,1523.255,334.521Zm.83,2.887h-3.16v1.262h3.16Zm4.938,0h-3.165v1.261h3.165Zm4.917,0h-3.162v1.262h3.162Zm1.766,1.261h3.164v-1.26h-3.164Z" transform="translate(-1518.902 -319.459)" fill="#429484"/>
  <path id="Path_4270" data-name="Path 4270" d="M1622.04,187.381c.062-.068.094-.105.128-.14q3.306-3.307,6.612-6.615a1.242,1.242,0,0,1,1.289-.382,1.4,1.4,0,0,1,.57.321c.913.89,1.81,1.8,2.712,2.7a.557.557,0,0,1,.047.066c-.218.233-.436.469-.656.7q-1.519,1.611-3.042,3.218a.452.452,0,0,1-.288.137q-3.6.011-7.2.005C1622.167,187.394,1622.125,187.388,1622.04,187.381Z" transform="translate(-1616.115 -180.192)" fill="#429484"/>
  <path id="Path_4271" data-name="Path 4271" d="M1784.2,254.15l2.942-3.121,1.019,1.02c-.029.033-.073.087-.121.137-.575.61-1.152,1.218-1.723,1.831a.408.408,0,0,1-.333.149c-.516-.008-1.031,0-1.547,0C1784.376,254.162,1784.315,254.156,1784.2,254.15Z" transform="translate(-1768.962 -246.96)" fill="#429484"/>
  <path id="Path_4272" data-name="Path 4272" d="M1851.274,284.874l1.23,1.227h-2.281l-.024-.081Z" transform="translate(-1831.167 -278.861)" fill="#429484"/>
  <path id="Path_4273" data-name="Path 4273" d="M1579.943,395.167v1.412H1578v-1.412Z" transform="translate(-1574.606 -382.818)" fill="#429484"/>
</svg>
