<svg id="Credit_card" data-name="Credit  card" xmlns="http://www.w3.org/2000/svg" width="29" height="29" viewBox="0 0 29 29">
  <rect id="Rectangle_2181" data-name="Rectangle 2181" width="21" height="21" transform="translate(4 4)" fill="none"/>
  <g id="Group_4275" data-name="Group 4275" transform="translate(5 5)">
    <path id="Path_4269" data-name="Path 4269" d="M1536.141,339.1h-16.365a.337.337,0,0,0-.061-.032A1.05,1.05,0,0,1,1518.9,338q-.005-4.472,0-8.943a1.071,1.071,0,0,1,.321-.8,1.155,1.155,0,0,1,.858-.308q7.879,0,15.759,0a1.975,1.975,0,0,1,.247.015,1.053,1.053,0,0,1,.9.83c.01.046.024.09.036.135V338.1a3.278,3.278,0,0,1-.118.381A1.138,1.138,0,0,1,1536.141,339.1Zm-13.653-5.733c.325,0,.649,0,.974,0a.86.86,0,0,0,.9-.853c.019-.536.02-1.074,0-1.611a.853.853,0,0,0-.889-.844q-.974-.009-1.947,0a.873.873,0,0,0-.9.913q0,.744,0,1.487a.878.878,0,0,0,.9.907C1521.851,333.366,1522.17,333.362,1522.488,333.362Zm.684,2.379h-2.6v1.039h2.6Zm4.067,0h-2.607v1.038h2.607Zm4.05,0h-2.605v1.04h2.605Zm1.455,1.038h2.607v-1.038h-2.607Z" transform="translate(-1518.902 -320.954)" fill="#429484"/>
    <path id="Path_4270" data-name="Path 4270" d="M1622.04,186.114c.051-.056.077-.087.105-.115q2.723-2.724,5.447-5.449a1.023,1.023,0,0,1,1.062-.315,1.158,1.158,0,0,1,.469.264c.752.734,1.491,1.481,2.234,2.224a.493.493,0,0,1,.039.055c-.18.192-.359.386-.541.578q-1.252,1.327-2.506,2.651a.373.373,0,0,1-.237.113q-2.966.009-5.933,0C1622.144,186.125,1622.11,186.119,1622.04,186.114Z" transform="translate(-1617.16 -180.192)" fill="#429484"/>
    <path id="Path_4271" data-name="Path 4271" d="M1784.2,253.6l2.424-2.571.839.84c-.024.027-.061.071-.1.113-.474.5-.949,1-1.419,1.508a.336.336,0,0,1-.274.123c-.425-.007-.85,0-1.274,0C1784.345,253.61,1784.294,253.6,1784.2,253.6Z" transform="translate(-1771.647 -247.677)" fill="#429484"/>
    <path id="Path_4272" data-name="Path 4272" d="M1851.084,284.874l1.013,1.011h-1.879l-.02-.067Z" transform="translate(-1834.521 -279.92)" fill="#429484"/>
    <path id="Path_4273" data-name="Path 4273" d="M1579.6,395.167v1.164H1578v-1.164Z" transform="translate(-1575.204 -384.994)" fill="#429484"/>
  </g>
  <rect id="Rectangle_2180" data-name="Rectangle 2180" width="29" height="29" fill="none"/>
</svg>
