<svg id="cvv" xmlns="http://www.w3.org/2000/svg" width="24" height="24" viewBox="0 0 24 24">
  <rect id="Rectangle_2220" data-name="Rectangle 2220" width="24" height="24" fill="none"/>
  <rect id="Rectangle_2221" data-name="Rectangle 2221" width="18" height="18" transform="translate(3 3)" fill="none"/>
  <g id="Group_4330" data-name="Group 4330" transform="translate(-2148.348 50.328)">
    <path id="Path_4291" data-name="Path 4291" d="M2159.365-33.729h-6.379a1.508,1.508,0,0,1-1.639-1.629q0-4.677,0-9.354a1.5,1.5,0,0,1,1.614-1.616h14.772a1.505,1.505,0,0,1,1.613,1.617q0,4.733,0,9.467a5.084,5.084,0,0,1-4.082,5.012,5.1,5.1,0,0,1-5.818-3.281C2159.42-33.583,2159.394-33.653,2159.365-33.729Zm.382-1.5a4.5,4.5,0,0,0,4.485,4.5,4.508,4.508,0,0,0,4.514-4.5,4.5,4.5,0,0,0-4.487-4.5A4.5,4.5,0,0,0,2159.747-35.233Zm8.992-5.682h-16.792v.2q0,2.69,0,5.381a.912.912,0,0,0,1.012,1.006h6.26a5.128,5.128,0,0,1,3.094-5.621,5.049,5.049,0,0,1,3.625-.086,5.1,5.1,0,0,1,2.8,2.388Zm0-2.4h-16.775v1.778h16.775Zm-16.788-.626h16.8v-.743a.923.923,0,0,0-1.05-1.043H2153c-.069,0-.138,0-.206,0a.9.9,0,0,0-.839.835C2151.938-44.579,2151.95-44.267,2151.95-43.941Z" fill="#666"/>
    <path id="Path_4292" data-name="Path 4292" d="M2386.241,147.092l.5-1.341c.029-.076.053-.153.085-.228a.3.3,0,0,1,.388-.2.3.3,0,0,1,.17.413c-.2.556-.413,1.11-.62,1.665-.083.222-.167.443-.25.665a.307.307,0,0,1-.3.236.311.311,0,0,1-.3-.242c-.286-.765-.574-1.529-.86-2.294a.308.308,0,0,1,.152-.438c.172-.07.329.018.412.238.193.507.382,1.014.573,1.521Z" transform="translate(-221.973 -182.033)" fill="#666"/>
    <path id="Path_4293" data-name="Path 4293" d="M2440.089,147.12c.144-.382.274-.723.4-1.064.068-.181.13-.364.2-.543a.3.3,0,0,1,.386-.2.3.3,0,0,1,.173.412q-.434,1.175-.876,2.348a.3.3,0,0,1-.585,0c-.293-.782-.587-1.564-.876-2.348a.3.3,0,0,1,.178-.41.3.3,0,0,1,.384.208c.179.466.351.933.527,1.4C2440.024,146.971,2440.049,147.025,2440.089,147.12Z" transform="translate(-273.138 -182.02)" fill="#666"/>
    <path id="Path_4294" data-name="Path 4294" d="M2336.954,146.7c0-.112-.006-.225,0-.337a1.2,1.2,0,0,1,1.938-.895.31.31,0,0,1,.105.453.307.307,0,0,1-.462.027.585.585,0,0,0-.666-.066.592.592,0,0,0-.318.572c0,.187,0,.375,0,.562a.6.6,0,0,0,.951.475c.021-.014.039-.032.059-.046a.3.3,0,0,1,.433.049.307.307,0,0,1-.074.431,1.2,1.2,0,0,1-1.7-.165A1.415,1.415,0,0,1,2336.954,146.7Z" transform="translate(-176.306 -181.934)" fill="#666"/>
    <path id="Path_4295" data-name="Path 4295" d="M2189.984,123.723c-.487,0-.974,0-1.461,0a1.2,1.2,0,1,1,0-2.4q1.461,0,2.922,0a1.2,1.2,0,1,1,0,2.4C2190.958,123.725,2190.471,123.723,2189.984,123.723Zm0-1.8c-.481,0-.962,0-1.443,0a.6.6,0,1,0,0,1.2q1.443,0,2.886,0a.6.6,0,1,0,0-1.2C2190.947,121.923,2190.466,121.924,2189.985,121.924Z" transform="translate(-34.142 -159.252)" fill="#666"/>
  </g>
</svg>
