<svg id="fawry" xmlns="http://www.w3.org/2000/svg" width="29" height="29" viewBox="0 0 29 29">
  <rect id="Rectangle_2175" data-name="Rectangle 2175" width="21" height="22" transform="translate(4 4)" fill="none"/>
  <rect id="Rectangle_2174" data-name="Rectangle 2174" width="29" height="29" fill="none"/>
  <g id="Path_4266" data-name="Path 4266" transform="translate(-1668.835 -110.27)">
    <path id="Path_4281" data-name="Path 4281" d="M1683.35,134.41a9.651,9.651,0,0,1-2.23-.26c-.19-.05-.38-.1-.57-.16a9.564,9.564,0,0,1,2.8-18.71,9.8,9.8,0,0,1,1.8.17,9.134,9.134,0,0,0-1.82-.18,9.575,9.575,0,0,0,.01,19.15,9.414,9.414,0,0,0,2.33-.29A9.826,9.826,0,0,1,1683.35,134.41Zm2.23-18.87a10.69,10.69,0,0,1,1.25.4A7.582,7.582,0,0,0,1685.58,115.54Z" fill="#429484"/>
    <path id="Path_4282" data-name="Path 4282" d="M1692.74,123.03a7.388,7.388,0,0,0-.2-.81.075.075,0,0,0-.01-.05q-.12-.39-.27-.78a7.317,7.317,0,0,0-.35-.81,8.344,8.344,0,0,0-.43-.77,9.686,9.686,0,0,0-1.07-1.41c-.12-.13-.25-.27-.38-.39s-.26-.26-.4-.38c-.1-.08-.2-.16-.3-.25a8.067,8.067,0,0,0-1.02-.71.01.01,0,0,0-.01-.01,1.14,1.14,0,0,0-.19-.1c-.01-.02-.02-.02-.03-.02a.635.635,0,0,0-.14-.08,2.147,2.147,0,0,0-.26-.14,1.092,1.092,0,0,0-.11-.06c-.24-.11-.49-.22-.74-.32a10.69,10.69,0,0,0-1.25-.4l-.43-.09a9.8,9.8,0,0,0-1.8-.17,9.563,9.563,0,0,0-2.8,18.71c.19.06.38.11.57.16a9.651,9.651,0,0,0,2.23.26,9.655,9.655,0,0,0,3.28-.57.01.01,0,0,1,.01-.01,9.327,9.327,0,0,0,1.12-.5,8.105,8.105,0,0,0,1.09-.66c.2-.14.39-.29.58-.44a9.541,9.541,0,0,0,3.48-7.38A9.938,9.938,0,0,0,1692.74,123.03Zm-9.39,10.38a9.2,9.2,0,0,1-1.17-.08,20.6,20.6,0,0,0,4.35-4.91c.4.24.73.48,1.09.66a.662.662,0,0,0,.54.06c.12-.09.14-.35.14-.53a4.109,4.109,0,0,0-.08-.6c-.21-1.53-.42-3.07-.63-4.6-.05-.35-.17-.55-.59-.4-1.66.6-3.33,1.17-5,1.77-.15.05-.37.22-.37.32a.766.766,0,0,0,.3.46c.38.28.79.51,1.23.79-.43.57-.79,1.1-1.2,1.6a12.79,12.79,0,0,1-3.95,3.59c-.11-.08-.21-.17-.32-.26a8.567,8.567,0,0,1,5.66-15,8.478,8.478,0,0,1,3.12.59c.13.05.26.11.39.17-.01.16-.03.32-.05.48-.24,1.29-.67,2.55-1,3.82a.725.725,0,0,0,.05.54c.05.08.33.07.48.02.68-.22,1.36-.46,2.11-.72.09.55.15,1.05.25,1.55.03.15.19.36.3.37a.5.5,0,0,0,.39-.28,12.921,12.921,0,0,0,.86-3.03,8.473,8.473,0,0,1,1.66,5.06A8.57,8.57,0,0,1,1683.35,133.41Z" fill="#429484"/>
  </g>
</svg>
