<svg id="Meeza_card" data-name="Meeza card" xmlns="http://www.w3.org/2000/svg" width="29" height="29" viewBox="0 0 29 29">
  <rect id="Rectangle_2172" data-name="Rectangle 2172" width="21" height="22" transform="translate(4 4)" fill="none"/>
  <g id="Group_4272" data-name="Group 4272" transform="translate(5 7)">
    <path id="Path_4242" data-name="Path 4242" d="M806.516,203.874c-.085,1.083-.154,2.19-.263,3.293a2.4,2.4,0,0,1-2.416,2.157,3.935,3.935,0,0,1-.79-.009,3.169,3.169,0,0,1-.942-.334.341.341,0,0,0-.45,0,2.6,2.6,0,0,1-3.316-.333c-.14-.174-.259-.152-.406,0a2.232,2.232,0,0,1-2.491.629c-.244-.086-.371-.011-.382.265q-.031.773-.093,1.545a.912.912,0,0,1-.85.889,5.19,5.19,0,0,1-.522.06c-.447.014-.569-.122-.534-.573.062-.787.138-1.573.185-2.362q.241-4.044.462-8.09c.018-.324.157-.417.471-.439,1.306-.093,1.427.553,1.346,1.479-.1,1.212-.152,2.433-.153,3.65a2.24,2.24,0,0,0,.379,1.092,1.427,1.427,0,0,0,1.639.539.491.491,0,0,0,.222-.373c.024-.559-.015-1.121.014-1.679.076-1.458.176-2.914.262-4.371.014-.242.1-.363.367-.332a4.484,4.484,0,0,0,.495,0,.872.872,0,0,1,.967.987c-.044,1.064-.126,2.126-.183,3.19a3.686,3.686,0,0,0,.228,1.937,1.125,1.125,0,0,0,1,.687c.208.009.292-.057.3-.276q.049-1.481.122-2.961c.055-1.085.125-2.169.187-3.254.012-.21.1-.316.327-.314.957.008,1.914-.013,2.871.01a2.1,2.1,0,0,1,1.941,2.084C806.522,203.059,806.516,203.454,806.516,203.874Zm-2.83,3.28c.727,0,.774-.053.8-.778.024-.569.076-1.136.112-1.7.031-.492.065-.984.078-1.477.009-.327-.13-.454-.457-.463-.187-.005-.373,0-.56,0-.525,0-.553.031-.579.543-.052,1.007-.106,2.015-.177,3.021C802.851,207.076,802.909,207.153,803.686,207.154Z" transform="translate(-787.389 -197.537)" fill="#429484"/>
    <path id="Path_4243" data-name="Path 4243" d="M711.4,200.683c.44,0,.881.016,1.32-.006.3-.015.384.107.364.386-.059.843-.1,1.687-.152,2.531-.06,1.019-.108,2.039-.184,3.057a2.755,2.755,0,0,1-1.309,2.37,1.4,1.4,0,0,1-.482.2,3.591,3.591,0,0,1-2.413-.174,2.105,2.105,0,0,1-1.049-1.835c-.026-.711.037-1.427.072-2.14.031-.647.054-1.3.122-1.939a2.539,2.539,0,0,1,2.129-2.421,11.537,11.537,0,0,1,1.582-.012Zm-1.348,6.462h.165c.574,0,.688-.11.7-.686q.007-.279.024-.559.078-1.314.159-2.628c.017-.278-.088-.444-.4-.431-.186.007-.374,0-.56,0-.492.007-.609.127-.636.624-.051.964-.1,1.928-.165,2.891C709.293,207.125,709.3,207.144,710.053,207.145Z" transform="translate(-707.49 -197.648)" fill="#429484"/>
    <path id="Path_4244" data-name="Path 4244" d="M900.665,341.783c.8,0,1.6.006,2.406,0,.289,0,.434.08.391.4s-.046.656-.085.982a.881.881,0,0,1-.892.724c-1.626.006-3.252,0-4.878.01-.179,0-.32-.043-.305-.247a9.608,9.608,0,0,1,.12-1.176.776.776,0,0,1,.869-.683c.791-.006,1.582,0,2.373,0Z" transform="translate(-884.732 -329.407)" fill="#429484"/>
    <path id="Path_4245" data-name="Path 4245" d="M804.767,155.243q.207.006.412.027a1.187,1.187,0,0,1,.617.2.878.878,0,0,1,.306.6,2.313,2.313,0,0,1-.054.688,1.019,1.019,0,0,1-.231.554.875.875,0,0,1-.61.2.916.916,0,0,1-1.038-.959,8.194,8.194,0,0,1,.067-1.093.252.252,0,0,1,.076-.179.249.249,0,0,1,.144-.033Q804.612,155.239,804.767,155.243Z" transform="translate(-797.768 -155.222)" fill="#429484"/>
    <path id="Path_4246" data-name="Path 4246" d="M728.285,155.669c-.038.293-.055.591-.12.878-.125.561-.5.782-1.148.7a.821.821,0,0,1-.673-.909,2.235,2.235,0,0,1,.017-.394c.137-.8.372-.993,1.19-1h.066C728.329,154.95,728.329,154.95,728.285,155.669Z" transform="translate(-725.095 -154.952)" fill="#429484"/>
    <path id="Path_4247" data-name="Path 4247" d="M829.381,338.94c.592-.031.722.122.622.714-.046.27-.065.544-.1.814-.084.576-.426.82-1.082.777q-.746-.048-.756-.883C828.048,339.278,828.309,339,829.381,338.94Z" transform="translate(-820.075 -326.753)" fill="#429484"/>
    <path id="Path_4248" data-name="Path 4248" d="M859.181,338.94c.592-.031.722.122.622.714-.045.27-.065.544-.1.814-.084.576-.426.82-1.082.777q-.746-.048-.756-.883C857.848,339.278,858.11,339,859.181,338.94Z" transform="translate(-847.902 -326.753)" fill="#429484"/>
    <path id="Path_4249" data-name="Path 4249" d="M761.147,155.757a7.209,7.209,0,0,1-.112.844c-.134.536-.5.725-1.189.655a.759.759,0,0,1-.629-.8,2.349,2.349,0,0,1,.064-.715.876.876,0,0,1,1.018-.772h.033C761.3,154.953,761.1,155.031,761.147,155.757Z" transform="translate(-755.787 -154.963)" fill="#429484"/>
  </g>
  <rect id="Rectangle_2173" data-name="Rectangle 2173" width="29" height="29" fill="none"/>
</svg>
