<svg id="Mobile_wallets" data-name="Mobile wallets" xmlns="http://www.w3.org/2000/svg" width="29" height="29" viewBox="0 0 29 29">
  <rect id="Rectangle_2177" data-name="Rectangle 2177" width="21" height="22" transform="translate(4 4)" fill="none"/>
  <g id="Group_4276" data-name="Group 4276" transform="translate(6 5)">
    <path id="Path_4274" data-name="Path 4274" d="M1030.6-115.38c0,1.071.012,2.111,0,3.15a1,1,0,0,1-1.017.954c-.606.007-1.211,0-1.817,0h-6.948a1.041,1.041,0,0,1-1.159-1.163q0-8.425,0-16.85a1.038,1.038,0,0,1,1.149-1.151h1.588c0,.122,0,.233,0,.344a1.019,1.019,0,0,0,1.019,1.022q1.71.01,3.42,0a1.019,1.019,0,0,0,1.033-1.03c0-.105,0-.211,0-.329.63,0,1.242-.027,1.851.009a.966.966,0,0,1,.881.949c.013,1.026,0,2.053,0,3.079a.281.281,0,0,1-.022.062H1024.9a1.375,1.375,0,0,0-1.488,1.493q0,3.817,0,7.634a1.716,1.716,0,0,0,1.818,1.824h5.364Z" transform="translate(-1019.652 130.439)" fill="#429484"/>
    <path id="Path_4275" data-name="Path 4275" d="M1097.514-13.955a2.179,2.179,0,0,0,1.209.192h9.723v2.044c-.063,0-.132.009-.2.009-.5,0-1,0-1.5,0a1.019,1.019,0,0,0-1.021,1.02c-.006.463-.008.927,0,1.39a1.017,1.017,0,0,0,1.01,1.009c.5.008,1,0,1.5,0h.218v2.053h-9.8a1.034,1.034,0,0,1-1.133-1.125q0-3.176,0-6.351Zm3.359,4.649a4.479,4.479,0,0,0,.282.613,1.032,1.032,0,0,0,.818.418v.659h.677v-.663c.048-.006.077-.009.1-.013a1.033,1.033,0,0,0,.915-1.1,1.034,1.034,0,0,0-1.073-.947c-.192,0-.385,0-.577,0-.249,0-.4-.14-.4-.348s.152-.331.389-.335c.164,0,.328.008.492,0,.26-.017.448.062.5.328h.734a4.5,4.5,0,0,0-.293-.622,1.022,1.022,0,0,0-.805-.4v-.659h-.677v.663c-.049.006-.077.009-.105.013a1.033,1.033,0,0,0-.915,1.1,1.036,1.036,0,0,0,1.072.948c.193,0,.385,0,.577,0,.248,0,.4.14.4.347a.349.349,0,0,1-.389.336c-.164,0-.328-.008-.491,0-.26.017-.448-.063-.5-.335Z" transform="translate(-1093.066 20.609)" fill="#429484"/>
    <path id="Path_4276" data-name="Path 4276" d="M1108.435-46.544v1.369h-.239q-4.939,0-9.877,0a1.205,1.205,0,0,1-.357-.041.674.674,0,0,1-.461-.733.691.691,0,0,1,.637-.591c.05,0,.1,0,.15,0h10.147Z" transform="translate(-1093.048 51.337)" fill="#429484"/>
    <path id="Path_4277" data-name="Path 4277" d="M1255.952,37.329v2.052h-.9c-.463,0-.925,0-1.388,0-.323,0-.442-.116-.443-.432,0-.413,0-.826,0-1.238a.334.334,0,0,1,.343-.379C1254.356,37.325,1255.145,37.329,1255.952,37.329Zm-1.375,1.358v-.658h-.659v.658Z" transform="translate(-1239.88 -27.744)" fill="#429484"/>
    <path id="Path_4278" data-name="Path 4278" d="M1079.529-130.286h4.1c0,.117.006.228,0,.339a.33.33,0,0,1-.343.335q-1.708.007-3.416,0a.329.329,0,0,1-.342-.336C1079.523-130.053,1079.529-130.16,1079.529-130.286Z" transform="translate(-1076.107 130.295)" fill="#429484"/>
  </g>
  <rect id="Rectangle_2176" data-name="Rectangle 2176" width="29" height="29" fill="none"/>
</svg>
