<svg id="paypal" xmlns="http://www.w3.org/2000/svg" width="29" height="29" viewBox="0 0 29 29">
  <rect id="Rectangle_2179" data-name="Rectangle 2179" width="21" height="21" transform="translate(4 4)" fill="none"/>
  <g id="Group_4274" data-name="Group 4274" transform="translate(6 5)">
    <path id="Path_4267" data-name="Path 4267" d="M1038.606,534.9q.187-1.213.374-2.427.256-1.636.515-3.272.137-.875.272-1.749c.018-.12.083-.146.2-.147.776-.007,1.554.007,2.328-.041a8.187,8.187,0,0,0,4.294-1.393,6.6,6.6,0,0,0,2.3-2.82c.24-.55.394-1.137.587-1.707.018-.053.033-.107.058-.19a2.721,2.721,0,0,1,.532,1.1,5.676,5.676,0,0,1-.078,2.661,6.191,6.191,0,0,1-1.178,2.556,5.151,5.151,0,0,1-2.954,1.764,9.576,9.576,0,0,1-2.158.207,3.572,3.572,0,0,0-.381.017.737.737,0,0,0-.7.642c-.124.693-.231,1.39-.345,2.085s-.222,1.365-.335,2.047a.728.728,0,0,1-.584.628.262.262,0,0,0-.064.038Z" transform="translate(-1033.531 -515.346)" fill="#429484"/>
    <path id="Path_4268" data-name="Path 4268" d="M1001.428,491.111c-.046,0-.083.007-.121.007q-1.8,0-3.591,0a.482.482,0,0,1-.529-.57c.065-.548.163-1.092.249-1.637q.255-1.617.513-3.235t.518-3.253q.258-1.627.515-3.254t.515-3.234c.071-.445.146-.89.209-1.336a.89.89,0,0,1,.956-.84c2.012,0,4.024-.01,6.035,0a9.931,9.931,0,0,1,2.715.334,3.733,3.733,0,0,1,2.6,2.167,3.366,3.366,0,0,1,.253,1.377,7.894,7.894,0,0,1-1.3,4.337,5.53,5.53,0,0,1-2.969,2.187,8.907,8.907,0,0,1-2.758.421c-.63,0-1.26,0-1.891,0a.9.9,0,0,0-.99.827c-.2,1.183-.381,2.369-.569,3.553-.1.658-.208,1.317-.313,1.975A1.554,1.554,0,0,1,1001.428,491.111Z" transform="translate(-997.183 -473.754)" fill="#429484"/>
  </g>
  <rect id="Rectangle_2178" data-name="Rectangle 2178" width="29" height="29" fill="none"/>
</svg>
