<svg id="pdf" xmlns="http://www.w3.org/2000/svg" width="24" height="24" viewBox="0 0 24 24">
  <path id="Path_5398" data-name="Path 5398" d="M0,0H24V24H0Z" fill="none"/>
  <path id="Path_5399" data-name="Path 5399" d="M20,2H8A2.006,2.006,0,0,0,6,4V16a2.006,2.006,0,0,0,2,2H20a2.006,2.006,0,0,0,2-2V4A2.006,2.006,0,0,0,20,2ZM11.5,9.5A1.5,1.5,0,0,1,10,11H9v1.25a.75.75,0,0,1-1.5,0V8a1,1,0,0,1,1-1H10a1.5,1.5,0,0,1,1.5,1.5Zm5,2A1.5,1.5,0,0,1,15,13H13a.5.5,0,0,1-.5-.5v-5A.5.5,0,0,1,13,7h2a1.5,1.5,0,0,1,1.5,1.5Zm4-3.75a.755.755,0,0,1-.75.75H19v1h.75a.75.75,0,0,1,0,1.5H19v1.25a.75.75,0,0,1-1.5,0V8a1,1,0,0,1,1-1h1.25A.755.755,0,0,1,20.5,7.75ZM9,9.5h1v-1H9ZM3,6A1,1,0,0,0,2,7V20a2.006,2.006,0,0,0,2,2H17a1,1,0,0,0,0-2H5a1,1,0,0,1-1-1V7A1,1,0,0,0,3,6Zm11,5.5h1v-3H14Z" fill="#429484"/>
</svg>
